<svg width="20" height="20" viewBox="0 0 20 20" fill="none" xmlns="http://www.w3.org/2000/svg">
<g clip-path="url(#clip0_132_3)">
<path d="M0 3.92443C0.0354484 3.76131 0.0638072 3.60528 0.0992556 3.44216C0.212691 3.00244 0.418291 2.60528 0.737327 2.28613C1.31868 1.70457 1.89295 1.12301 2.48139 0.548539C2.97058 0.0733619 3.53775 -0.160681 4.20418 0.123007C4.43814 0.222298 4.66501 0.371234 4.84225 0.548539C5.72138 1.4067 6.58632 2.27194 7.44417 3.14428C7.82701 3.53435 8.07515 3.98826 7.99007 4.55563C7.92627 4.98116 7.67813 5.3074 7.38745 5.60528C6.89826 6.09464 6.40907 6.584 5.91989 7.06627C5.66466 7.32159 5.66466 7.38542 5.80645 7.71166C6.36654 8.95989 7.2173 9.99535 8.13187 10.9883C9.04644 11.9741 10.0461 12.8606 11.1875 13.5769C11.5775 13.818 11.9957 14.0166 12.3999 14.2365C12.5842 14.3358 12.726 14.2578 12.8607 14.123C13.3711 13.6124 13.8674 13.0946 14.3921 12.5982C14.5977 12.3996 14.8316 12.2152 15.0868 12.1017C15.6115 11.8606 16.1149 11.9741 16.5686 12.3003C16.682 12.3854 16.7884 12.4847 16.8947 12.584C17.7242 13.4067 18.5537 14.2223 19.369 15.0592C19.5675 15.2649 19.7519 15.4989 19.8653 15.7542C20.1205 16.3003 20.0213 16.8535 19.6242 17.2861C18.9862 17.9883 18.3127 18.662 17.632 19.3216C17.2563 19.6833 16.7742 19.8677 16.2566 19.9528C16.1928 19.9599 16.129 19.9812 16.0723 19.9953C15.7958 19.9953 15.5264 19.9953 15.2499 19.9953C15.2003 19.9812 15.1577 19.967 15.1081 19.9599C14.4913 19.8322 13.8532 19.7542 13.2577 19.5627C11.4782 19.0024 9.86884 18.0875 8.35874 17.0166C5.61503 15.0734 3.41723 12.6266 1.75115 9.70457C1.12017 8.60528 0.609713 7.44925 0.276498 6.2223C0.155973 5.78258 0.0921659 5.32868 0 4.87478C0 4.56272 0 4.24357 0 3.92443Z" fill="white"/>
</g>
<defs>
<clipPath id="clip0_132_3">
<rect width="20" height="20" fill="white"/>
</clipPath>
</defs>
</svg>
